# xmcd
#
# Track frame offsets: 
#        150
#        24006
#        51840
#        77115
#        101732
#        127607
#        154873
#        180561
#        205203
#        230280
#        255019
#        279843
#        298651
#        317664
#        333076
#
# Disc length: 4729 seconds
#
# Revision: 0
# Processed by: cddbd v1.5.2PL0 Copyright (c) Steve Scherf et al.
# Submitted via: ExactAudioCopyFreeDBPlugin 1.0
#
DISCID=b512770f
DTITLE=Change - Turn On Your Radio
DYEAR=1985
DGENRE=Funk
TTITLE0=Turn On Your Radio
TTITLE1=Let's Go Together
TTITLE2=Examination
TTITLE3=You'll Always Be A Part Of Me
TTITLE4=Oh What A Feeling
TTITLE5=Mutual Attraction
TTITLE6=Love The Way You Love Me
TTITLE7=If You Want My Love
TTITLE8=Let's Go Together (12" Paul Hardcastle Remix)
TTITLE9=Mutual Attraction (12" Nick Martinelli Remix)
TTITLE10=Oh What A Feeling (12" Paul Hardcastle Remix)
TTITLE11=Let's Go Together (Single Version)
TTITLE12=Mutual Attraction (Single Version)
TTITLE13=Turn On Your Radio (Single Version)
TTITLE14=Mutual Attraction (Instrumental Version)
EXTD=
EXTT0=
EXTT1=
EXTT2=
EXTT3=
EXTT4=
EXTT5=
EXTT6=
EXTT7=
EXTT8=
EXTT9=
EXTT10=
EXTT11=
EXTT12=
EXTT13=
EXTT14=
PLAYORDER=
